# xmcd
#
# Track frame offsets:
#	150
#	29229
#	77487
#	113350
#	126465
#	144571
#	163834
#	201429
#	269681
#	291433
#	317070
#
# Disc length: 4592 seconds
#
# Revision: 0
# Processed by: cddbd v1.5.2PL0 Copyright (c) Steve Scherf et al.
# Submitted via: EasyCDDAExtractor 16.0.8.2
#
DISCID=ae11ee0b
DTITLE=Συλλογικός δίσκος - Ανέσπερα-Χρ. Τσιαμούλης
DYEAR=2003
DGENRE=Παραδοσιακή
TTITLE0=Άνευ ερμηνευτού - Φεγγάρι μου
TTITLE1=Άνευ ερμηνευτού - Ανέσπερα
TTITLE2=Άνευ ερμηνευτού - Βαλκανικός χορός
TTITLE3=Άνευ ερμηνευτού - Τσάμικος χορός
TTITLE4=Άνευ ερμηνευτού - Λεβέντικος χορός
TTITLE5=Άνευ ερμηνευτού - Χορός πυροβασίας
TTITLE6=Τσιαμούλης Χρίστος-Παπαδοπούλου Κ. - Μαυροξενητέας
TTITLE7=Άνευ ερμηνευτού - Μαυροθαλασσίτικο
TTITLE8=Άνευ ερμηνευτού - Μεταμόρφωση
TTITLE9=Άνευ ερμηνευτού - Κιούρτσιας-Κότσαρι
TTITLE10=Αμαραντίδης Γιώργος - Μοιρολόϊ
EXTD=
EXTT0=
EXTT1=
EXTT2=
EXTT3=
EXTT4=
EXTT5=
EXTT6=
EXTT7=
EXTT8=
EXTT9=
EXTT10=
PLAYORDER=
